<svg version="1.1" id="Layer_1" xmlns="http://www.w3.org/2000/svg" xmlns:xlink="http://www.w3.org/1999/xlink" x="0px" y="0px"
	 width="100%" viewBox="0 0 1024 1024" enable-background="new 0 0 1024 1024" xml:space="preserve">
<path fill="#000000" opacity="1.000000" stroke="none" 
	d="
M405.439819,901.614258 
	C367.071014,879.386963 329.024994,857.332703 290.957245,835.316101 
	C243.377762,807.798218 195.781448,780.309448 148.189316,752.813477 
	C141.987946,749.230713 135.780563,745.658020 129.552780,742.121460 
	C125.871346,740.030884 124.323921,736.994446 124.322540,732.703735 
	C124.285217,616.552246 124.143356,500.400726 124.105263,384.249237 
	C124.095100,353.286591 124.414070,322.323944 124.438972,291.361176 
	C124.441605,288.090698 126.161804,286.506561 128.518875,285.111450 
	C140.702255,277.900208 152.878632,270.676605 165.101151,263.532074 
	C200.764908,242.685257 236.456955,221.886887 272.123840,201.045395 
	C315.552246,175.668594 358.934265,150.212280 402.396454,124.893547 
	C438.524628,103.847252 474.761627,82.987770 510.876892,61.919479 
	C513.933472,60.136387 516.184326,61.027897 518.714050,62.489372 
	C539.047241,74.236450 559.393066,85.961769 579.722656,97.715088 
	C631.772522,127.807121 683.855469,157.842178 735.850464,188.028732 
	C784.097595,216.039383 832.251892,244.210175 880.437256,272.327148 
	C887.773926,276.608185 895.027588,281.032043 902.381531,285.282654 
	C905.274963,286.955109 906.499573,289.134094 906.496765,292.581543 
	C906.396057,414.238342 906.376770,535.895203 906.348083,657.552063 
	C906.342407,681.550232 906.249329,705.548950 906.407349,729.546082 
	C906.449707,735.980225 904.398926,740.202271 898.440613,743.607056 
	C855.488770,768.150757 812.747498,793.062988 769.936462,817.853210 
	C712.859802,850.904236 655.782654,883.954468 598.701111,916.997070 
	C572.904358,931.929932 547.052795,946.769104 521.336060,961.838257 
	C516.955444,964.405151 513.443481,964.637085 508.911926,961.969788 
	C474.606049,941.777832 440.157196,921.828857 405.439819,901.614258 
M192.902023,750.544006 
	C248.072968,782.559448 303.251038,814.562622 358.412720,846.594055 
	C407.668732,875.196045 456.972534,903.717224 506.070740,932.587891 
	C512.327454,936.266968 516.980591,936.365295 523.223206,932.603210 
	C549.897156,916.528564 576.813416,900.850708 603.777588,885.263855 
	C649.774536,858.675110 695.910461,832.326660 741.919678,805.759094 
	C786.201477,780.189148 830.345642,754.380493 874.697876,728.934021 
	C879.932190,725.930908 881.747681,722.423401 881.717163,716.585693 
	C881.536011,681.925781 881.688354,647.264221 881.682739,612.603210 
	C881.666138,510.953369 881.620056,409.303528 881.634338,307.653687 
	C881.634766,304.468872 881.258789,302.056641 878.022461,300.227203 
	C861.494812,290.884369 845.088379,281.326050 828.677795,271.777374 
	C781.606812,244.388565 734.588989,216.908401 687.485596,189.575516 
	C631.448547,157.058624 575.324707,124.691162 519.318176,92.121925 
	C515.987305,90.184952 513.645020,90.093651 510.314484,92.069176 
	C490.548157,103.793884 470.649292,115.295807 450.764313,126.819756 
	C400.040680,156.215683 349.269836,185.530197 298.576660,214.978485 
	C250.622803,242.835464 202.769531,270.865723 154.785812,298.670990 
	C150.684387,301.047638 149.038101,303.707825 149.054611,308.532196 
	C149.235367,361.356262 149.191254,414.181122 149.201019,467.005768 
	C149.216507,550.825378 149.270721,634.645081 149.128525,718.464478 
	C149.120041,723.473694 150.683563,726.302551 155.049942,728.704590 
	C167.596771,735.607239 179.894165,742.963196 192.902023,750.544006 
z"/>
<path fill="#000000" opacity="1.000000" stroke="none" 
	d="
M231.646515,606.999878 
	C231.646515,530.008240 231.685410,453.516571 231.552124,377.025146 
	C231.544220,372.485779 232.837387,369.776489 236.846848,367.479523 
	C255.634186,356.716614 274.246643,345.648560 292.939819,334.720734 
	C294.192291,333.988495 295.413361,332.977936 297.962677,333.434021 
	C297.962677,429.082306 297.962677,524.871582 297.962677,621.429199 
	C301.227692,619.988831 302.444366,617.965942 303.899078,616.285034 
	C351.207397,561.620911 398.490601,506.934998 445.785034,452.258850 
	C467.140381,427.570312 488.498718,402.884308 509.885468,378.222992 
	C514.677185,372.697632 514.748657,372.735046 519.863892,378.436340 
	C536.658386,397.155243 553.440063,415.885559 570.230347,434.608276 
	C577.124268,442.295715 584.011108,449.989685 590.937317,457.647919 
	C592.695679,459.592163 593.419495,461.164490 591.271484,463.593292 
	C580.017944,476.317749 568.947937,489.204498 557.795166,502.018341 
	C557.164429,502.743011 556.365784,503.321503 555.236023,504.335297 
	C548.382751,496.599091 541.697327,489.009460 534.962524,481.463898 
	C529.860718,475.747833 524.580933,470.186218 519.606140,464.362976 
	C516.984192,461.293823 514.808411,461.303619 512.280884,464.246826 
	C504.796509,472.962036 497.201019,481.583038 489.794220,490.363403 
	C458.115021,527.917358 426.475586,565.504883 394.845917,603.100586 
	C366.327209,636.998474 337.780334,670.873291 309.419128,704.902710 
	C306.108459,708.875061 303.666931,710.018250 298.778168,707.136841 
	C278.118134,694.959900 257.222992,683.179932 236.344955,671.376709 
	C232.904327,669.431519 231.538712,667.056335 231.584534,662.994507 
	C231.793182,644.498474 231.658493,625.998474 231.646515,606.999878 
z"/>
<path fill="#000000" opacity="1.000000" stroke="none" 
	d="
M770.911621,686.985229 
	C760.418457,693.081970 750.242004,698.993286 738.727539,705.681824 
	C738.727539,610.012024 738.727539,515.620178 738.727539,421.264801 
	C734.564209,420.724335 733.380859,423.315643 731.856506,425.077148 
	C714.859131,444.720093 697.941956,464.432404 680.984375,484.109833 
	C660.872559,507.447327 640.701111,530.733521 620.630554,554.106384 
	C595.568848,583.291626 570.584900,612.543640 545.564697,641.764526 
	C537.116272,651.631470 528.665894,661.496826 520.196838,671.346069 
	C519.344971,672.336792 518.567139,673.481689 516.430969,673.886719 
	C510.101959,667.186829 503.457031,660.258911 496.929260,653.222168 
	C477.898163,632.707153 459.038452,612.027344 439.242310,592.242188 
	C436.005615,589.007263 435.455200,587.040283 438.895813,583.399353 
	C450.675507,570.933594 461.994141,558.033386 473.601837,545.403015 
	C478.283630,540.308594 478.402985,540.456726 483.114227,545.622986 
	C492.204407,555.591187 501.307678,565.547729 510.448914,575.469116 
	C515.259888,580.690613 516.333008,580.705078 521.004639,575.393860 
	C545.204590,547.880615 569.387634,520.352478 593.538391,492.796051 
	C633.160767,447.586243 672.750610,402.347870 712.362427,357.128845 
	C718.728455,349.861603 725.214539,342.697723 731.483887,335.348511 
	C733.595764,332.872742 735.395081,332.494904 738.283630,334.167450 
	C758.023743,345.597412 777.820312,356.931213 797.682251,368.148163 
	C800.795776,369.906494 800.221924,372.501312 800.221741,375.070374 
	C800.217896,423.391418 800.190613,471.712463 800.162598,520.033508 
	C800.134888,567.854675 800.035522,615.676025 800.167847,663.496765 
	C800.181519,668.446045 798.797424,671.364075 794.218750,673.667542 
	C786.345764,677.628479 778.870544,682.380127 770.911621,686.985229 
z"/>
</svg>